<svg width="108" height="20" viewBox="0 0 108 20" fill="none" xmlns="http://www.w3.org/2000/svg">
    <g clip-path="url(#clip0_250_3670)">
        <g clip-path="url(#clip1_250_3670)">
            <g clip-path="url(#clip2_250_3670)">
                <path fill-rule="evenodd" clip-rule="evenodd"
                      d="M0.494141 19.7333V0.503906H7.75926C11.2304 0.503906 13.679 2.26203 13.679 5.4486C13.679 7.26165 12.5219 8.63516 11.3649 9.23953C13.1677 9.92628 14.5938 11.4646 14.5938 14.0469C14.5938 17.618 11.9838 19.7333 8.02833 19.7333H0.494141ZM3.99215 16.5741H7.67853C10.0733 16.5741 11.1765 15.6402 11.1765 13.8546C11.1765 12.0965 10.0733 11.1075 7.67853 11.1075H3.99215V16.5741ZM3.99215 8.03081H7.51709C9.40062 8.03081 10.3424 7.2067 10.3424 5.72329C10.3424 4.23988 9.40062 3.41577 7.46327 3.41577H3.99215V8.03081Z"
                      fill="#333333"/>
                <path d="M31.8923 1.71289H35.2019V5.88841H41.1218V1.71289H44.4314V5.88841H48.1985V8.71786H44.4314V14.7614C44.4314 16.1624 45.1579 16.8766 46.3956 16.8766H48.1985V19.7335H46.019C43.059 19.7335 41.1218 17.9754 41.1218 14.8987V8.71786H35.2019V14.7614C35.2019 16.1624 35.9285 16.8766 37.1663 16.8766H38.9691V19.7335H36.7895C33.8296 19.7335 31.8923 17.9754 31.8923 14.8987V8.71786H29.2285V5.88841H31.8923V1.71289Z"
                      fill="#000"/>
                <path fill-rule="evenodd" clip-rule="evenodd"
                      d="M100.656 17.3139C98.4576 17.3139 96.726 16.2151 96.2588 14.0724H107.197C107.252 13.6878 107.307 13.2482 107.307 12.8362C107.307 8.88044 104.504 5.58398 100.409 5.58398C96.094 5.58398 93.1533 8.74308 93.1533 12.8087C93.1533 16.9293 96.094 20.0334 100.629 20.0334L100.89 20.0083C103.553 19.7769 106.063 18.0028 106.871 15.6107L103.991 15.5747C103.418 16.4203 102.272 17.2526 100.656 17.3139ZM96.2313 11.6549H104.311C103.899 9.2925 102.168 8.27609 100.381 8.27609C98.1551 8.27609 96.6435 9.59467 96.2313 11.6549Z"
                      fill="#000"/>
                <path fill-rule="evenodd" clip-rule="evenodd"
                      d="M51.7207 14.0724C52.1879 16.2151 53.9193 17.3139 56.1179 17.3139C57.7335 17.2526 58.88 16.4203 59.453 15.5747L62.3324 15.6107C61.5252 18.0028 59.0149 19.7769 56.3523 20.0083L56.0904 20.0334C51.5558 20.0334 48.6152 16.9293 48.6152 12.8087C48.6152 8.74308 51.5558 5.58398 55.8706 5.58398C59.9655 5.58398 62.7688 8.88044 62.7688 12.8362C62.7688 13.2482 62.7138 13.6878 62.6588 14.0724H51.7207ZM59.7731 11.6549H51.6932C52.1055 9.59467 53.6171 8.27609 55.8431 8.27609C57.6295 8.27609 59.3608 9.2925 59.7731 11.6549Z"
                      fill="#000"/>
                <path fill-rule="evenodd" clip-rule="evenodd"
                      d="M22.8113 17.3139C20.6128 17.3139 18.8813 16.2151 18.4141 14.0724H29.3523C29.4072 13.6878 29.462 13.2482 29.462 12.8362C29.462 8.88044 26.659 5.58398 22.5641 5.58398C18.2492 5.58398 15.3086 8.74308 15.3086 12.8087C15.3086 16.9293 18.2492 20.0334 22.7838 20.0334L23.0457 20.0083C25.7083 19.7769 28.2185 18.0028 29.0257 15.6107L26.1465 15.5747C25.5734 16.4203 24.427 17.2526 22.8113 17.3139ZM18.3867 11.6549H26.4665C26.0543 9.2925 24.3229 8.27609 22.5366 8.27609C20.3105 8.27609 18.7989 9.59467 18.3867 11.6549Z"
                      fill="#000"/>
                <path d="M72.4287 19.7247V0.503906H76.5244L82.2369 14.6999L87.9495 0.503906H92.0453V19.7247H88.7041V6.98406L83.5844 19.7247H80.8897L75.7431 6.98406V19.7247H72.4287Z"
                      fill="#000"/>
                <path d="M71.2791 5.88676C69.618 5.89121 68.0116 6.56692 67.2172 8.39354V5.95439H63.9238V19.7319H67.2172V12.6078C67.3282 9.77371 69.45 8.92697 71.2791 9.05248L71.2957 9.05364V5.88672L71.2791 5.88676Z"
                      fill="#000"/>
            </g>
        </g>
    </g>
    <defs>
        <clipPath id="clip0_250_3670">
            <rect width="108" height="20" fill="white"/>
        </clipPath>
        <clipPath id="clip1_250_3670">
            <rect width="108" height="20" fill="white"/>
        </clipPath>
        <clipPath id="clip2_250_3670">
            <rect width="108" height="20.1356" fill="white"/>
        </clipPath>
    </defs>
</svg>
